<svg xmlns="http://www.w3.org/2000/svg" width="1024" height="1024" viewBox="0 0 1024 1024"><defs><radialGradient id="halo" cx="50%" cy="50%" r="50%"><stop offset="0%" stop-color="#7dd3fc" stop-opacity="0.0"/><stop offset="80%" stop-color="#7dd3fc" stop-opacity="0.0"/><stop offset="88%" stop-color="#bfe9ff" stop-opacity="0.55"/><stop offset="93%" stop-color="#7dd3fc" stop-opacity="0.30"/><stop offset="100%" stop-color="#7dd3fc" stop-opacity="0"/></radialGradient><linearGradient id="rim" x1="0" y1="0" x2="1" y2="1"><stop offset="0%" stop-color="#f3d9a3"/><stop offset="35%" stop-color="#d2a163"/><stop offset="70%" stop-color="#a5762f"/><stop offset="100%" stop-color="#6e4620"/></linearGradient><radialGradient id="field" cx="42%" cy="38%" r="72%"><stop offset="0%" stop-color="#d3a869"/><stop offset="55%" stop-color="#b0803f"/><stop offset="100%" stop-color="#7c552a"/></radialGradient><linearGradient id="motif" x1="0" y1="0" x2="0" y2="1"><stop offset="0%" stop-color="#f0d29a"/><stop offset="55%" stop-color="#c69a55"/><stop offset="100%" stop-color="#8a5a2e"/></linearGradient><radialGradient id="glassCenter" cx="50%" cy="40%" r="60%"><stop offset="0%" stop-color="#bfe9ff" stop-opacity="0.35"/><stop offset="100%" stop-color="#bfe9ff" stop-opacity="0"/></radialGradient><filter id="soft"><feGaussianBlur stdDeviation="2"/></filter><path id="toparc" fill="none" d="M 160,512 A 352,352 0 0 1 864,512"/><path id="botarc" fill="none" d="M 180,512 A 332,332 0 0 0 844,512"/></defs><circle cx="512" cy="512" r="510" fill="url(#halo)"/><circle cx="512" cy="512" r="430" fill="url(#rim)"/><circle cx="512" cy="512" r="430" fill="none" stroke="#5a3717" stroke-width="4"/><g><circle cx="910.0" cy="512.0" r="4.2" fill="#f0d29a" opacity="0.85"/><circle cx="909.0" cy="540.4" r="4.2" fill="#f0d29a" opacity="0.85"/><circle cx="905.9" cy="568.6" r="4.2" fill="#f0d29a" opacity="0.85"/><circle cx="900.9" cy="596.6" r="4.2" fill="#f0d29a" opacity="0.85"/><circle cx="893.9" cy="624.1" r="4.2" fill="#f0d29a" opacity="0.85"/><circle cx="884.9" cy="651.1" r="4.2" fill="#f0d29a" opacity="0.85"/><circle cx="874.0" cy="677.3" r="4.2" fill="#f0d29a" opacity="0.85"/><circle cx="861.3" cy="702.7" r="4.2" fill="#f0d29a" opacity="0.85"/><circle cx="846.8" cy="727.2" r="4.2" fill="#f0d29a" opacity="0.85"/><circle cx="830.6" cy="750.5" r="4.2" fill="#f0d29a" opacity="0.85"/><circle cx="812.8" cy="772.6" r="4.2" fill="#f0d29a" opacity="0.85"/><circle cx="793.4" cy="793.4" r="4.2" fill="#f0d29a" opacity="0.85"/><circle cx="772.6" cy="812.8" r="4.2" fill="#f0d29a" opacity="0.85"/><circle cx="750.5" cy="830.6" r="4.2" fill="#f0d29a" opacity="0.85"/><circle cx="727.2" cy="846.8" r="4.2" fill="#f0d29a" opacity="0.85"/><circle cx="702.7" cy="861.3" r="4.2" fill="#f0d29a" opacity="0.85"/><circle cx="677.3" cy="874.0" r="4.2" fill="#f0d29a" opacity="0.85"/><circle cx="651.1" cy="884.9" r="4.2" fill="#f0d29a" opacity="0.85"/><circle cx="624.1" cy="893.9" r="4.2" fill="#f0d29a" opacity="0.85"/><circle cx="596.6" cy="900.9" r="4.2" fill="#f0d29a" opacity="0.85"/><circle cx="568.6" cy="905.9" r="4.2" fill="#f0d29a" opacity="0.85"/><circle cx="540.4" cy="909.0" r="4.2" fill="#f0d29a" opacity="0.85"/><circle cx="512.0" cy="910.0" r="4.2" fill="#f0d29a" opacity="0.85"/><circle cx="483.6" cy="909.0" r="4.2" fill="#f0d29a" opacity="0.85"/><circle cx="455.4" cy="905.9" r="4.2" fill="#f0d29a" opacity="0.85"/><circle cx="427.4" cy="900.9" r="4.2" fill="#f0d29a" opacity="0.85"/><circle cx="399.9" cy="893.9" r="4.2" fill="#f0d29a" opacity="0.85"/><circle cx="372.9" cy="884.9" r="4.2" fill="#f0d29a" opacity="0.85"/><circle cx="346.7" cy="874.0" r="4.2" fill="#f0d29a" opacity="0.85"/><circle cx="321.3" cy="861.3" r="4.2" fill="#f0d29a" opacity="0.85"/><circle cx="296.8" cy="846.8" r="4.2" fill="#f0d29a" opacity="0.85"/><circle cx="273.5" cy="830.6" r="4.2" fill="#f0d29a" opacity="0.85"/><circle cx="251.4" cy="812.8" r="4.2" fill="#f0d29a" opacity="0.85"/><circle cx="230.6" cy="793.4" r="4.2" fill="#f0d29a" opacity="0.85"/><circle cx="211.2" cy="772.6" r="4.2" fill="#f0d29a" opacity="0.85"/><circle cx="193.4" cy="750.5" r="4.2" fill="#f0d29a" opacity="0.85"/><circle cx="177.2" cy="727.2" r="4.2" fill="#f0d29a" opacity="0.85"/><circle cx="162.7" cy="702.7" r="4.2" fill="#f0d29a" opacity="0.85"/><circle cx="150.0" cy="677.3" r="4.2" fill="#f0d29a" opacity="0.85"/><circle cx="139.1" cy="651.1" r="4.2" fill="#f0d29a" opacity="0.85"/><circle cx="130.1" cy="624.1" r="4.2" fill="#f0d29a" opacity="0.85"/><circle cx="123.1" cy="596.6" r="4.2" fill="#f0d29a" opacity="0.85"/><circle cx="118.1" cy="568.6" r="4.2" fill="#f0d29a" opacity="0.85"/><circle cx="115.0" cy="540.4" r="4.2" fill="#f0d29a" opacity="0.85"/><circle cx="114.0" cy="512.0" r="4.2" fill="#f0d29a" opacity="0.85"/><circle cx="115.0" cy="483.6" r="4.2" fill="#f0d29a" opacity="0.85"/><circle cx="118.1" cy="455.4" r="4.2" fill="#f0d29a" opacity="0.85"/><circle cx="123.1" cy="427.4" r="4.2" fill="#f0d29a" opacity="0.85"/><circle cx="130.1" cy="399.9" r="4.2" fill="#f0d29a" opacity="0.85"/><circle cx="139.1" cy="372.9" r="4.2" fill="#f0d29a" opacity="0.85"/><circle cx="150.0" cy="346.7" r="4.2" fill="#f0d29a" opacity="0.85"/><circle cx="162.7" cy="321.3" r="4.2" fill="#f0d29a" opacity="0.85"/><circle cx="177.2" cy="296.8" r="4.2" fill="#f0d29a" opacity="0.85"/><circle cx="193.4" cy="273.5" r="4.2" fill="#f0d29a" opacity="0.85"/><circle cx="211.2" cy="251.4" r="4.2" fill="#f0d29a" opacity="0.85"/><circle cx="230.6" cy="230.6" r="4.2" fill="#f0d29a" opacity="0.85"/><circle cx="251.4" cy="211.2" r="4.2" fill="#f0d29a" opacity="0.85"/><circle cx="273.5" cy="193.4" r="4.2" fill="#f0d29a" opacity="0.85"/><circle cx="296.8" cy="177.2" r="4.2" fill="#f0d29a" opacity="0.85"/><circle cx="321.3" cy="162.7" r="4.2" fill="#f0d29a" opacity="0.85"/><circle cx="346.7" cy="150.0" r="4.2" fill="#f0d29a" opacity="0.85"/><circle cx="372.9" cy="139.1" r="4.2" fill="#f0d29a" opacity="0.85"/><circle cx="399.9" cy="130.1" r="4.2" fill="#f0d29a" opacity="0.85"/><circle cx="427.4" cy="123.1" r="4.2" fill="#f0d29a" opacity="0.85"/><circle cx="455.4" cy="118.1" r="4.2" fill="#f0d29a" opacity="0.85"/><circle cx="483.6" cy="115.0" r="4.2" fill="#f0d29a" opacity="0.85"/><circle cx="512.0" cy="114.0" r="4.2" fill="#f0d29a" opacity="0.85"/><circle cx="540.4" cy="115.0" r="4.2" fill="#f0d29a" opacity="0.85"/><circle cx="568.6" cy="118.1" r="4.2" fill="#f0d29a" opacity="0.85"/><circle cx="596.6" cy="123.1" r="4.2" fill="#f0d29a" opacity="0.85"/><circle cx="624.1" cy="130.1" r="4.2" fill="#f0d29a" opacity="0.85"/><circle cx="651.1" cy="139.1" r="4.2" fill="#f0d29a" opacity="0.85"/><circle cx="677.3" cy="150.0" r="4.2" fill="#f0d29a" opacity="0.85"/><circle cx="702.7" cy="162.7" r="4.2" fill="#f0d29a" opacity="0.85"/><circle cx="727.2" cy="177.2" r="4.2" fill="#f0d29a" opacity="0.85"/><circle cx="750.5" cy="193.4" r="4.2" fill="#f0d29a" opacity="0.85"/><circle cx="772.6" cy="211.2" r="4.2" fill="#f0d29a" opacity="0.85"/><circle cx="793.4" cy="230.6" r="4.2" fill="#f0d29a" opacity="0.85"/><circle cx="812.8" cy="251.4" r="4.2" fill="#f0d29a" opacity="0.85"/><circle cx="830.6" cy="273.5" r="4.2" fill="#f0d29a" opacity="0.85"/><circle cx="846.8" cy="296.8" r="4.2" fill="#f0d29a" opacity="0.85"/><circle cx="861.3" cy="321.3" r="4.2" fill="#f0d29a" opacity="0.85"/><circle cx="874.0" cy="346.7" r="4.2" fill="#f0d29a" opacity="0.85"/><circle cx="884.9" cy="372.9" r="4.2" fill="#f0d29a" opacity="0.85"/><circle cx="893.9" cy="399.9" r="4.2" fill="#f0d29a" opacity="0.85"/><circle cx="900.9" cy="427.4" r="4.2" fill="#f0d29a" opacity="0.85"/><circle cx="905.9" cy="455.4" r="4.2" fill="#f0d29a" opacity="0.85"/><circle cx="909.0" cy="483.6" r="4.2" fill="#f0d29a" opacity="0.85"/></g><circle cx="512" cy="512" r="372" fill="url(#field)" stroke="#6e4620" stroke-width="3"/><circle cx="512" cy="512" r="366" fill="none" stroke="#5c3a1a" stroke-width="7" opacity="0.45"/><circle cx="512" cy="512" r="358" fill="none" stroke="#f2dca6" stroke-width="2.5" opacity="0.55"/><circle cx="512" cy="512" r="372" fill="url(#glassCenter)"/><g><g transform="translate(456.1,829.1) rotate(350.0) scale(1.70)"><path d="M0,0 Q7,-4 1.5,-20 Q-4,-9 0,0 Z" fill="#c9a05a" opacity="1.00"/><path d="M0,-2 L1.2,-17" stroke="#6e4620" stroke-width="0.7" opacity="0.5"/></g><g transform="translate(429.3,800.4) rotate(315.0) scale(1.25)"><path d="M0,0 Q7,-4 1.5,-20 Q-4,-9 0,0 Z" fill="#b98b45" opacity="0.90"/><path d="M0,-2 L1.2,-17" stroke="#6e4620" stroke-width="0.7" opacity="0.5"/></g><g transform="translate(370.8,801.4) rotate(366.0) scale(1.70)"><path d="M0,0 Q7,-4 1.5,-20 Q-4,-9 0,0 Z" fill="#c9a05a" opacity="1.00"/><path d="M0,-2 L1.2,-17" stroke="#6e4620" stroke-width="0.7" opacity="0.5"/></g><g transform="translate(353.0,766.4) rotate(331.0) scale(1.25)"><path d="M0,0 Q7,-4 1.5,-20 Q-4,-9 0,0 Z" fill="#b98b45" opacity="0.90"/><path d="M0,-2 L1.2,-17" stroke="#6e4620" stroke-width="0.7" opacity="0.5"/></g><g transform="translate(296.5,751.3) rotate(382.0) scale(1.70)"><path d="M0,0 Q7,-4 1.5,-20 Q-4,-9 0,0 Z" fill="#c9a05a" opacity="1.00"/><path d="M0,-2 L1.2,-17" stroke="#6e4620" stroke-width="0.7" opacity="0.5"/></g><g transform="translate(289.1,712.7) rotate(347.0) scale(1.25)"><path d="M0,0 Q7,-4 1.5,-20 Q-4,-9 0,0 Z" fill="#b98b45" opacity="0.90"/><path d="M0,-2 L1.2,-17" stroke="#6e4620" stroke-width="0.7" opacity="0.5"/></g><g transform="translate(238.9,682.6) rotate(398.0) scale(1.70)"><path d="M0,0 Q7,-4 1.5,-20 Q-4,-9 0,0 Z" fill="#c9a05a" opacity="1.00"/><path d="M0,-2 L1.2,-17" stroke="#6e4620" stroke-width="0.7" opacity="0.5"/></g><g transform="translate(242.4,643.5) rotate(363.0) scale(1.25)"><path d="M0,0 Q7,-4 1.5,-20 Q-4,-9 0,0 Z" fill="#b98b45" opacity="0.90"/><path d="M0,-2 L1.2,-17" stroke="#6e4620" stroke-width="0.7" opacity="0.5"/></g><g transform="translate(202.5,600.8) rotate(414.0) scale(1.70)"><path d="M0,0 Q7,-4 1.5,-20 Q-4,-9 0,0 Z" fill="#c9a05a" opacity="1.00"/><path d="M0,-2 L1.2,-17" stroke="#6e4620" stroke-width="0.7" opacity="0.5"/></g><g transform="translate(216.6,564.1) rotate(379.0) scale(1.25)"><path d="M0,0 Q7,-4 1.5,-20 Q-4,-9 0,0 Z" fill="#b98b45" opacity="0.90"/><path d="M0,-2 L1.2,-17" stroke="#6e4620" stroke-width="0.7" opacity="0.5"/></g><g transform="translate(190.0,512.0) rotate(430.0) scale(1.70)"><path d="M0,0 Q7,-4 1.5,-20 Q-4,-9 0,0 Z" fill="#c9a05a" opacity="1.00"/><path d="M0,-2 L1.2,-17" stroke="#6e4620" stroke-width="0.7" opacity="0.5"/></g><g transform="translate(213.6,480.6) rotate(395.0) scale(1.25)"><path d="M0,0 Q7,-4 1.5,-20 Q-4,-9 0,0 Z" fill="#b98b45" opacity="0.90"/><path d="M0,-2 L1.2,-17" stroke="#6e4620" stroke-width="0.7" opacity="0.5"/></g><g transform="translate(202.5,423.2) rotate(446.0) scale(1.70)"><path d="M0,0 Q7,-4 1.5,-20 Q-4,-9 0,0 Z" fill="#c9a05a" opacity="1.00"/><path d="M0,-2 L1.2,-17" stroke="#6e4620" stroke-width="0.7" opacity="0.5"/></g><g transform="translate(233.8,399.6) rotate(411.0) scale(1.25)"><path d="M0,0 Q7,-4 1.5,-20 Q-4,-9 0,0 Z" fill="#b98b45" opacity="0.90"/><path d="M0,-2 L1.2,-17" stroke="#6e4620" stroke-width="0.7" opacity="0.5"/></g><g transform="translate(238.9,341.4) rotate(462.0) scale(1.70)"><path d="M0,0 Q7,-4 1.5,-20 Q-4,-9 0,0 Z" fill="#c9a05a" opacity="1.00"/><path d="M0,-2 L1.2,-17" stroke="#6e4620" stroke-width="0.7" opacity="0.5"/></g><g transform="translate(275.6,327.3) rotate(427.0) scale(1.25)"><path d="M0,0 Q7,-4 1.5,-20 Q-4,-9 0,0 Z" fill="#b98b45" opacity="0.90"/><path d="M0,-2 L1.2,-17" stroke="#6e4620" stroke-width="0.7" opacity="0.5"/></g><g transform="translate(296.5,272.7) rotate(478.0) scale(1.70)"><path d="M0,0 Q7,-4 1.5,-20 Q-4,-9 0,0 Z" fill="#c9a05a" opacity="1.00"/><path d="M0,-2 L1.2,-17" stroke="#6e4620" stroke-width="0.7" opacity="0.5"/></g><g transform="translate(335.7,269.3) rotate(443.0) scale(1.25)"><path d="M0,0 Q7,-4 1.5,-20 Q-4,-9 0,0 Z" fill="#b98b45" opacity="0.90"/><path d="M0,-2 L1.2,-17" stroke="#6e4620" stroke-width="0.7" opacity="0.5"/></g><g transform="translate(370.8,222.6) rotate(494.0) scale(1.70)"><path d="M0,0 Q7,-4 1.5,-20 Q-4,-9 0,0 Z" fill="#c9a05a" opacity="1.00"/><path d="M0,-2 L1.2,-17" stroke="#6e4620" stroke-width="0.7" opacity="0.5"/></g><g transform="translate(409.4,230.1) rotate(459.0) scale(1.25)"><path d="M0,0 Q7,-4 1.5,-20 Q-4,-9 0,0 Z" fill="#b98b45" opacity="0.90"/><path d="M0,-2 L1.2,-17" stroke="#6e4620" stroke-width="0.7" opacity="0.5"/></g><g transform="translate(567.9,829.1) rotate(10.0) scale(1.70)"><path d="M0,0 Q7,-4 1.5,-20 Q-4,-9 0,0 Z" fill="#c9a05a" opacity="1.00"/><path d="M0,-2 L1.2,-17" stroke="#6e4620" stroke-width="0.7" opacity="0.5"/></g><g transform="translate(594.7,800.4) rotate(45.0) scale(1.25)"><path d="M0,0 Q7,-4 1.5,-20 Q-4,-9 0,0 Z" fill="#b98b45" opacity="0.90"/><path d="M0,-2 L1.2,-17" stroke="#6e4620" stroke-width="0.7" opacity="0.5"/></g><g transform="translate(653.2,801.4) rotate(-6.0) scale(1.70)"><path d="M0,0 Q7,-4 1.5,-20 Q-4,-9 0,0 Z" fill="#c9a05a" opacity="1.00"/><path d="M0,-2 L1.2,-17" stroke="#6e4620" stroke-width="0.7" opacity="0.5"/></g><g transform="translate(671.0,766.4) rotate(29.0) scale(1.25)"><path d="M0,0 Q7,-4 1.5,-20 Q-4,-9 0,0 Z" fill="#b98b45" opacity="0.90"/><path d="M0,-2 L1.2,-17" stroke="#6e4620" stroke-width="0.7" opacity="0.5"/></g><g transform="translate(727.5,751.3) rotate(-22.0) scale(1.70)"><path d="M0,0 Q7,-4 1.5,-20 Q-4,-9 0,0 Z" fill="#c9a05a" opacity="1.00"/><path d="M0,-2 L1.2,-17" stroke="#6e4620" stroke-width="0.7" opacity="0.5"/></g><g transform="translate(734.9,712.7) rotate(13.0) scale(1.25)"><path d="M0,0 Q7,-4 1.5,-20 Q-4,-9 0,0 Z" fill="#b98b45" opacity="0.90"/><path d="M0,-2 L1.2,-17" stroke="#6e4620" stroke-width="0.7" opacity="0.5"/></g><g transform="translate(785.1,682.6) rotate(-38.0) scale(1.70)"><path d="M0,0 Q7,-4 1.5,-20 Q-4,-9 0,0 Z" fill="#c9a05a" opacity="1.00"/><path d="M0,-2 L1.2,-17" stroke="#6e4620" stroke-width="0.7" opacity="0.5"/></g><g transform="translate(781.6,643.5) rotate(-3.0) scale(1.25)"><path d="M0,0 Q7,-4 1.5,-20 Q-4,-9 0,0 Z" fill="#b98b45" opacity="0.90"/><path d="M0,-2 L1.2,-17" stroke="#6e4620" stroke-width="0.7" opacity="0.5"/></g><g transform="translate(821.5,600.8) rotate(-54.0) scale(1.70)"><path d="M0,0 Q7,-4 1.5,-20 Q-4,-9 0,0 Z" fill="#c9a05a" opacity="1.00"/><path d="M0,-2 L1.2,-17" stroke="#6e4620" stroke-width="0.7" opacity="0.5"/></g><g transform="translate(807.4,564.1) rotate(-19.0) scale(1.25)"><path d="M0,0 Q7,-4 1.5,-20 Q-4,-9 0,0 Z" fill="#b98b45" opacity="0.90"/><path d="M0,-2 L1.2,-17" stroke="#6e4620" stroke-width="0.7" opacity="0.5"/></g><g transform="translate(834.0,512.0) rotate(-70.0) scale(1.70)"><path d="M0,0 Q7,-4 1.5,-20 Q-4,-9 0,0 Z" fill="#c9a05a" opacity="1.00"/><path d="M0,-2 L1.2,-17" stroke="#6e4620" stroke-width="0.7" opacity="0.5"/></g><g transform="translate(810.4,480.6) rotate(-35.0) scale(1.25)"><path d="M0,0 Q7,-4 1.5,-20 Q-4,-9 0,0 Z" fill="#b98b45" opacity="0.90"/><path d="M0,-2 L1.2,-17" stroke="#6e4620" stroke-width="0.7" opacity="0.5"/></g><g transform="translate(821.5,423.2) rotate(-86.0) scale(1.70)"><path d="M0,0 Q7,-4 1.5,-20 Q-4,-9 0,0 Z" fill="#c9a05a" opacity="1.00"/><path d="M0,-2 L1.2,-17" stroke="#6e4620" stroke-width="0.7" opacity="0.5"/></g><g transform="translate(790.2,399.6) rotate(-51.0) scale(1.25)"><path d="M0,0 Q7,-4 1.5,-20 Q-4,-9 0,0 Z" fill="#b98b45" opacity="0.90"/><path d="M0,-2 L1.2,-17" stroke="#6e4620" stroke-width="0.7" opacity="0.5"/></g><g transform="translate(785.1,341.4) rotate(-102.0) scale(1.70)"><path d="M0,0 Q7,-4 1.5,-20 Q-4,-9 0,0 Z" fill="#c9a05a" opacity="1.00"/><path d="M0,-2 L1.2,-17" stroke="#6e4620" stroke-width="0.7" opacity="0.5"/></g><g transform="translate(748.4,327.3) rotate(-67.0) scale(1.25)"><path d="M0,0 Q7,-4 1.5,-20 Q-4,-9 0,0 Z" fill="#b98b45" opacity="0.90"/><path d="M0,-2 L1.2,-17" stroke="#6e4620" stroke-width="0.7" opacity="0.5"/></g><g transform="translate(727.5,272.7) rotate(-118.0) scale(1.70)"><path d="M0,0 Q7,-4 1.5,-20 Q-4,-9 0,0 Z" fill="#c9a05a" opacity="1.00"/><path d="M0,-2 L1.2,-17" stroke="#6e4620" stroke-width="0.7" opacity="0.5"/></g><g transform="translate(688.3,269.3) rotate(-83.0) scale(1.25)"><path d="M0,0 Q7,-4 1.5,-20 Q-4,-9 0,0 Z" fill="#b98b45" opacity="0.90"/><path d="M0,-2 L1.2,-17" stroke="#6e4620" stroke-width="0.7" opacity="0.5"/></g><g transform="translate(653.2,222.6) rotate(-134.0) scale(1.70)"><path d="M0,0 Q7,-4 1.5,-20 Q-4,-9 0,0 Z" fill="#c9a05a" opacity="1.00"/><path d="M0,-2 L1.2,-17" stroke="#6e4620" stroke-width="0.7" opacity="0.5"/></g><g transform="translate(614.6,230.1) rotate(-99.0) scale(1.25)"><path d="M0,0 Q7,-4 1.5,-20 Q-4,-9 0,0 Z" fill="#b98b45" opacity="0.90"/><path d="M0,-2 L1.2,-17" stroke="#6e4620" stroke-width="0.7" opacity="0.5"/></g></g><circle cx="512" cy="828" r="10" fill="#8a5a2e"/><g transform="translate(512,300)"><path d="M0,-46 A46,46 0 1 0 0,46 A34,34 0 1 1 0,-46 Z" fill="url(#motif)" stroke="#6e4620" stroke-width="1.5"/></g><g stroke="url(#motif)" fill="none" stroke-linecap="round" transform="translate(78,0)"><path d="M508,388 C690,452 690,576 508,640" stroke-width="12"/><path d="M508,388 L508,640" stroke="#8a5a2e" stroke-width="4"/><path d="M500,514 L556,514" stroke="#8a5a2e" stroke-width="3.5"/><path d="M540,506 L556,514 L540,522" stroke="#8a5a2e" stroke-width="3" fill="none"/></g><g fill="url(#motif)" stroke="#6e4620" stroke-width="1.4" transform="translate(0,10)"><path d="M470,478 C452,486 446,506 452,540 L456,600 L466,600 L466,556 C486,566 520,566 540,556 L556,606 L566,606 L560,548 C572,520 566,494 545,484 C534,478 500,474 470,478 Z"/><path d="M470,486 C452,486 446,470 452,458 C456,452 466,452 470,462 Z"/><path d="M456,462 C452,446 448,440 452,430 M462,460 C460,446 458,440 462,432 M470,460 C476,448 478,442 476,432 M470,460 C484,448 490,442 490,432" stroke="#8a5a2e" stroke-width="3.5" fill="none"/></g><path d="M430,650 Q512,664 594,650" stroke="#8a5a2e" stroke-width="3" fill="none" opacity="0.7"/><text font-family="Georgia,'Times New Roman',serif" font-size="70" font-weight="700" letter-spacing="14" fill="#f2dca6" stroke="#6e4620" stroke-width="1.2"><textPath href="#toparc" startOffset="50%" text-anchor="middle">NAVLYS</textPath></text><text font-family="Georgia,serif" font-size="30" letter-spacing="8" fill="#e6cd95" opacity="0.9"><textPath href="#botarc" startOffset="50%" text-anchor="middle">&#8226; ORCHESTRATION IA &#8226;</textPath></text><ellipse cx="430" cy="330" rx="150" ry="80" fill="#ffffff" opacity="0.10"/></svg>